<svg id="visual" viewBox="0 0 960 540" width="960" height="540" xmlns="http://www.w3.org/2000/svg" xmlns:xlink="http://www.w3.org/1999/xlink" version="1.1"><rect x="0" y="0" width="960" height="540" fill="#bdeccd"></rect><path d="M0 376L22.8 377C45.7 378 91.3 380 137 377.7C182.7 375.3 228.3 368.7 274 367.5C319.7 366.3 365.3 370.7 411.2 372C457 373.3 503 371.7 548.8 368.3C594.7 365 640.3 360 686 355.8C731.7 351.7 777.3 348.3 823 348.5C868.7 348.7 914.3 352.3 937.2 354.2L960 356L960 541L937.2 541C914.3 541 868.7 541 823 541C777.3 541 731.7 541 686 541C640.3 541 594.7 541 548.8 541C503 541 457 541 411.2 541C365.3 541 319.7 541 274 541C228.3 541 182.7 541 137 541C91.3 541 45.7 541 22.8 541L0 541Z" fill="#86d265"></path><path d="M0 390L22.8 397C45.7 404 91.3 418 137 421.2C182.7 424.3 228.3 416.7 274 409.3C319.7 402 365.3 395 411.2 392.8C457 390.7 503 393.3 548.8 389.2C594.7 385 640.3 374 686 377.8C731.7 381.7 777.3 400.3 823 400.3C868.7 400.3 914.3 381.7 937.2 372.3L960 363L960 541L937.2 541C914.3 541 868.7 541 823 541C777.3 541 731.7 541 686 541C640.3 541 594.7 541 548.8 541C503 541 457 541 411.2 541C365.3 541 319.7 541 274 541C228.3 541 182.7 541 137 541C91.3 541 45.7 541 22.8 541L0 541Z" fill="#7ac959"></path><path d="M0 412L22.8 417C45.7 422 91.3 432 137 438.2C182.7 444.3 228.3 446.7 274 446.8C319.7 447 365.3 445 411.2 437.3C457 429.7 503 416.3 548.8 414.2C594.7 412 640.3 421 686 424.5C731.7 428 777.3 426 823 425.5C868.7 425 914.3 426 937.2 426.5L960 427L960 541L937.2 541C914.3 541 868.7 541 823 541C777.3 541 731.7 541 686 541C640.3 541 594.7 541 548.8 541C503 541 457 541 411.2 541C365.3 541 319.7 541 274 541C228.3 541 182.7 541 137 541C91.3 541 45.7 541 22.8 541L0 541Z" fill="#6ec14c"></path><path d="M0 448L22.8 453.5C45.7 459 91.3 470 137 468.8C182.7 467.7 228.3 454.3 274 451.8C319.7 449.3 365.3 457.7 411.2 462.8C457 468 503 470 548.8 471.5C594.7 473 640.3 474 686 475.3C731.7 476.7 777.3 478.3 823 475C868.7 471.7 914.3 463.3 937.2 459.2L960 455L960 541L937.2 541C914.3 541 868.7 541 823 541C777.3 541 731.7 541 686 541C640.3 541 594.7 541 548.8 541C503 541 457 541 411.2 541C365.3 541 319.7 541 274 541C228.3 541 182.7 541 137 541C91.3 541 45.7 541 22.8 541L0 541Z" fill="#62b93f"></path><path d="M0 484L22.8 486.2C45.7 488.3 91.3 492.7 137 497.2C182.7 501.7 228.3 506.3 274 504.5C319.7 502.7 365.3 494.3 411.2 489.5C457 484.7 503 483.3 548.8 483C594.7 482.7 640.3 483.3 686 486.8C731.7 490.3 777.3 496.7 823 501.7C868.7 506.7 914.3 510.3 937.2 512.2L960 514L960 541L937.2 541C914.3 541 868.7 541 823 541C777.3 541 731.7 541 686 541C640.3 541 594.7 541 548.8 541C503 541 457 541 411.2 541C365.3 541 319.7 541 274 541C228.3 541 182.7 541 137 541C91.3 541 45.7 541 22.8 541L0 541Z" fill="#55b131"></path></svg>