<svg id="visual" viewBox="0 0 900 60" width="900" height="60" xmlns="http://www.w3.org/2000/svg" xmlns:xlink="http://www.w3.org/1999/xlink" version="1.1"><path d="M665 60L668 57.5C671 55 677 50 677 45C677 40 671 35 672.5 30C674 25 683 20 683 15C683 10 674 5 669.5 2.5L665 0L900 0L900 2.5C900 5 900 10 900 15C900 20 900 25 900 30C900 35 900 40 900 45C900 50 900 55 900 57.5L900 60Z" fill="#3f8d23"></path><path d="M323 60L321.5 57.5C320 55 317 50 312.5 45C308 40 302 35 308 30C314 25 332 20 335 15C338 10 326 5 320 2.5L314 0L666 0L670.5 2.5C675 5 684 10 684 15C684 20 675 25 673.5 30C672 35 678 40 678 45C678 50 672 55 669 57.5L666 60Z" fill="#387c21"></path><path d="M0 60L0 57.5C0 55 0 50 0 45C0 40 0 35 0 30C0 25 0 20 0 15C0 10 0 5 0 2.5L0 0L315 0L321 2.5C327 5 339 10 336 15C333 20 315 25 309 30C303 35 309 40 313.5 45C318 50 321 55 322.5 57.5L324 60Z" fill="#326c1f"></path></svg>