<svg id="visual" viewBox="0 0 250 100" width="250" height="100" xmlns="http://www.w3.org/2000/svg" xmlns:xlink="http://www.w3.org/1999/xlink" version="1.1"><rect x="0" y="0" width="250" height="100" fill="#326c1f"></rect><defs><linearGradient id="grad1_0" x1="60%" y1="0%" x2="100%" y2="100%"><stop offset="0%" stop-color="#3f8d23" stop-opacity="1"></stop><stop offset="100%" stop-color="#3f8d23" stop-opacity="1"></stop></linearGradient></defs><defs><linearGradient id="grad1_1" x1="60%" y1="0%" x2="100%" y2="100%"><stop offset="0%" stop-color="#3f8d23" stop-opacity="1"></stop><stop offset="100%" stop-color="#326c1f" stop-opacity="1"></stop></linearGradient></defs><defs><linearGradient id="grad2_0" x1="0%" y1="0%" x2="40%" y2="100%"><stop offset="0%" stop-color="#3f8d23" stop-opacity="1"></stop><stop offset="100%" stop-color="#3f8d23" stop-opacity="1"></stop></linearGradient></defs><defs><linearGradient id="grad2_1" x1="0%" y1="0%" x2="40%" y2="100%"><stop offset="0%" stop-color="#326c1f" stop-opacity="1"></stop><stop offset="100%" stop-color="#3f8d23" stop-opacity="1"></stop></linearGradient></defs><g transform="translate(250, 0)"><path d="M0 70C-7.2 64.1 -14.4 58.2 -23 55.4C-31.5 52.7 -41.3 53 -48.8 48.8C-56.3 44.5 -61.5 35.7 -64.7 26.8C-67.8 17.9 -68.9 8.9 -70 0L0 0Z" fill="#387c21"></path><path d="M0 35C-3.6 32 -7.2 29.1 -11.5 27.7C-15.7 26.3 -20.6 26.5 -24.4 24.4C-28.2 22.3 -30.8 17.8 -32.3 13.4C-33.9 8.9 -34.5 4.5 -35 0L0 0Z" fill="#3f8d23"></path></g><g transform="translate(0, 100)"><path d="M0 -70C8.6 -65.5 17.3 -61 23 -55.4C28.6 -49.8 31.4 -43.1 38.9 -38.9C46.4 -34.6 58.7 -32.9 64.7 -26.8C70.7 -20.7 70.3 -10.4 70 0L0 0Z" fill="#387c21"></path><path d="M0 -35C4.3 -32.8 8.6 -30.5 11.5 -27.7C14.3 -24.9 15.7 -21.6 19.4 -19.4C23.2 -17.3 29.3 -16.4 32.3 -13.4C35.3 -10.4 35.2 -5.2 35 0L0 0Z" fill="#3f8d23"></path></g></svg>